<?xml version="1.0" standalone="no"?>
<svg viewBox="0 0 200 200" xmlns="http://www.w3.org/2000/svg">
  <path fill="#9EF0F0" d="M35.5,-50.6C46,-41.3,54.4,-30.8,58.3,-18.9C62.3,-6.9,61.9,6.5,60.2,21.9C58.4,37.3,55.3,54.6,45.1,62C34.9,69.3,17.4,66.7,2.1,63.8C-13.3,61,-26.5,57.9,-39.2,51.3C-51.9,44.8,-63.9,34.7,-69.7,21.6C-75.4,8.4,-74.8,-7.8,-70.9,-24.1C-67.1,-40.3,-59.9,-56.5,-47.6,-65.2C-35.2,-73.9,-17.6,-75.1,-2.5,-71.6C12.5,-68.1,25.1,-59.9,35.5,-50.6Z" transform="translate(100 100)" />
</svg>
