<?xml version="1.0" standalone="no"?>
<svg viewBox="0 0 200 200" xmlns="http://www.w3.org/2000/svg">
  <path fill="#FF0066" d="M30.9,-48.6C41.8,-41.1,53.5,-35.5,58.3,-26.3C63,-17.1,60.8,-4.3,61.2,10.5C61.7,25.2,64.8,42,58.2,51.3C51.5,60.6,35.2,62.3,19.7,66.6C4.3,70.9,-10.3,77.6,-23.3,75.5C-36.3,73.4,-47.8,62.4,-59,50.6C-70.1,38.7,-80.9,25.9,-83.4,11.7C-85.9,-2.5,-80.1,-18.2,-72.9,-33C-65.7,-47.8,-57.2,-61.7,-44.8,-68.5C-32.4,-75.3,-16.2,-75,-3.1,-70.2C10,-65.4,20,-56.1,30.9,-48.6Z" transform="translate(100 100)" />
</svg>
